<svg width="800" height="520" viewBox="0 0 800 520" fill="none" xmlns="http://www.w3.org/2000/svg">
  <rect width="800" height="520" fill="#F3ECDF"/>
  <rect x="26" y="26" width="748" height="468" stroke="#2D241F" stroke-opacity="0.18" stroke-width="2"/>
  <g opacity="0.28" stroke="#8F3D24" stroke-width="1">
    <path d="M80 120H720"/>
    <path d="M80 200H720"/>
    <path d="M80 280H720"/>
    <path d="M80 360H720"/>
    <path d="M160 80V440"/>
    <path d="M280 80V440"/>
    <path d="M400 80V440"/>
    <path d="M520 80V440"/>
    <path d="M640 80V440"/>
  </g>
  <g fill="#201A17" fill-opacity="0.08">
    <rect x="96" y="94" width="186" height="78"/>
    <rect x="322" y="94" width="160" height="78"/>
    <rect x="522" y="94" width="182" height="78"/>
    <rect x="96" y="222" width="240" height="82"/>
    <rect x="390" y="222" width="136" height="82"/>
    <rect x="566" y="222" width="138" height="82"/>
    <rect x="156" y="352" width="180" height="74"/>
    <rect x="390" y="352" width="254" height="74"/>
  </g>
  <g stroke="#201A17" stroke-width="3">
    <rect x="96" y="94" width="186" height="78"/>
    <rect x="322" y="94" width="160" height="78"/>
    <rect x="522" y="94" width="182" height="78"/>
    <rect x="96" y="222" width="240" height="82"/>
    <rect x="390" y="222" width="136" height="82"/>
    <rect x="566" y="222" width="138" height="82"/>
    <rect x="156" y="352" width="180" height="74"/>
    <rect x="390" y="352" width="254" height="74"/>
  </g>
  <g stroke="#8F3D24" stroke-width="4">
    <path d="M282 133H322"/>
    <path d="M482 133H522"/>
    <path d="M216 172V222"/>
    <path d="M458 172V222"/>
    <path d="M635 172V222"/>
    <path d="M216 304V352"/>
    <path d="M458 304V352"/>
    <path d="M336 263H390"/>
    <path d="M526 263H566"/>
  </g>
  <g fill="#8F3D24">
    <circle cx="216" cy="133" r="9"/>
    <circle cx="402" cy="133" r="9"/>
    <circle cx="610" cy="133" r="9"/>
    <circle cx="216" cy="263" r="9"/>
    <circle cx="458" cy="263" r="9"/>
    <circle cx="635" cy="263" r="9"/>
    <circle cx="246" cy="389" r="9"/>
    <circle cx="520" cy="389" r="9"/>
  </g>
  <g fill="#201A17">
    <rect x="116" y="114" width="64" height="8"/>
    <rect x="116" y="132" width="110" height="8"/>
    <rect x="116" y="150" width="86" height="8"/>
    <rect x="342" y="114" width="78" height="8"/>
    <rect x="342" y="132" width="96" height="8"/>
    <rect x="542" y="114" width="108" height="8"/>
    <rect x="542" y="132" width="78" height="8"/>
    <rect x="116" y="244" width="82" height="8"/>
    <rect x="116" y="262" width="164" height="8"/>
    <rect x="116" y="280" width="122" height="8"/>
    <rect x="410" y="244" width="68" height="8"/>
    <rect x="410" y="262" width="86" height="8"/>
    <rect x="586" y="244" width="72" height="8"/>
    <rect x="586" y="262" width="88" height="8"/>
    <rect x="176" y="374" width="94" height="8"/>
    <rect x="176" y="392" width="118" height="8"/>
    <rect x="410" y="374" width="112" height="8"/>
    <rect x="410" y="392" width="184" height="8"/>
  </g>
</svg>
